<svg xmlns="http://www.w3.org/2000/svg" width="21" height="21" viewBox="0 0 21 21">
    <path fill="#D82028" fill-rule="nonzero" d="M10.685 5.416v5.322l4.544 2.697-.754 1.288-5.321-3.232V5.416h1.53zm-.535 13.195a7.9 7.9 0 0 0 4.082-1.118 7.87 7.87 0 0 0 2.916-2.916 7.9 7.9 0 0 0 1.118-4.082 7.9 7.9 0 0 0-1.118-4.082 7.87 7.87 0 0 0-2.916-2.916 7.9 7.9 0 0 0-4.082-1.118 7.9 7.9 0 0 0-4.082 1.118 7.87 7.87 0 0 0-2.916 2.916 7.9 7.9 0 0 0-1.118 4.082 7.9 7.9 0 0 0 1.118 4.082 7.87 7.87 0 0 0 2.916 2.916 7.9 7.9 0 0 0 4.082 1.118zm0-18.225c1.847 0 3.556.462 5.127 1.385a9.581 9.581 0 0 1 3.597 3.597 9.942 9.942 0 0 1 1.385 5.127 9.942 9.942 0 0 1-1.385 5.127 9.581 9.581 0 0 1-3.597 3.597 9.942 9.942 0 0 1-5.127 1.385 9.942 9.942 0 0 1-5.127-1.385 9.762 9.762 0 0 1-3.597-3.621 9.897 9.897 0 0 1-1.385-5.103c0-1.83.462-3.532 1.385-5.103a9.949 9.949 0 0 1 3.621-3.62A9.897 9.897 0 0 1 10.15.385z"/>
</svg>
