<svg xmlns="http://www.w3.org/2000/svg" width="13" height="22" viewBox="0 0 13 22">
    <path fill="#D82028" fill-rule="nonzero" d="M9.302 3.484c-.38.38-.822.57-1.329.57-.506 0-.949-.19-1.328-.57-.38-.38-.57-.823-.57-1.33 0-.506.19-.949.57-1.328.38-.38.822-.57 1.328-.57.507 0 .95.19 1.33.57.379.38.569.822.569 1.329 0 .506-.19.949-.57 1.329zM7.973 9.748l-.949-1.803-.949 2.943 2.705 4.556v6.075H6.977v-4.556l-2.373-3.228-2.706 7.784H0L3.844 6.33l-1.946.76v3.797H0V5.572l5.268-1.804c.127-.031.332-.047.617-.047.601 0 1.092.285 1.471.854L9.492 7.85h3.417v1.898H7.973z"/>
</svg>
