<svg xmlns="http://www.w3.org/2000/svg" width="19" height="22" viewBox="0 0 19 22">
    <path fill="#D82028" fill-rule="nonzero" d="M16.184 2.534c.538 0 1.013.206 1.424.617.411.412.617.886.617 1.424v14.903c0 .538-.206 1.012-.617 1.424-.411.411-.886.617-1.424.617H2.041c-.538 0-1.013-.206-1.424-.617C.206 20.49 0 20.016 0 19.478V4.575c0-.538.206-1.012.617-1.424.411-.411.886-.617 1.424-.617H6.17A2.85 2.85 0 0 1 7.238.897a2.99 2.99 0 0 1 1.874-.64 2.99 2.99 0 0 1 1.875.64c.554.427.91.973 1.068 1.637h4.13zm-6.36.285a.966.966 0 0 0-.712-.285.966.966 0 0 0-.711.285.966.966 0 0 0-.285.712c0 .285.095.53.285.736.19.205.427.308.711.308a.929.929 0 0 0 .712-.308c.19-.206.285-.451.285-.736a.966.966 0 0 0-.285-.712zm6.503 16.801V4.433h-1.899V7.85H3.797V4.433H1.898V19.62h14.429z"/>
</svg>
