<?xml version="1.0" encoding="utf-8"?>
<!-- Generator: Adobe Illustrator 23.0.3, SVG Export Plug-In . SVG Version: 6.00 Build 0)  -->
<svg version="1.1" id="Capa_1" xmlns="http://www.w3.org/2000/svg" xmlns:xlink="http://www.w3.org/1999/xlink" x="0px" y="0px"
	 viewBox="0 0 9.3 6.9" style="enable-background:new 0 0 9.3 6.9;" xml:space="preserve">
<style type="text/css">
	svg{width:10px;height:10px}
	.st0{fill:#96C953;}
	.st1{fill:#C62828;}
</style>
<path class="st0" d="M8.1,0.2L3.2,5.1l-2-2c-0.3-0.3-0.7-0.3-1,0c-0.3,0.3-0.3,0.7,0,1l2.5,2.5C2.8,6.8,3,6.9,3.2,6.9
	s0.4-0.1,0.5-0.2l5.4-5.4c0.3-0.3,0.3-0.7,0-1C8.8-0.1,8.4-0.1,8.1,0.2z"/>
<path class="st1" d="M24.3-10.6c-0.2-0.2-0.5-0.2-0.7,0l-1.9,1.9l-1.9-1.9c-0.2-0.2-0.5-0.2-0.7,0c-0.2,0.2-0.2,0.5,0,0.7L21-8
	l-1.9,1.9c-0.2,0.2-0.2,0.5,0,0.7c0.1,0.1,0.2,0.1,0.4,0.1s0.3,0,0.4-0.1l1.9-1.9l1.9,1.9c0.1,0.1,0.2,0.1,0.4,0.1
	c0.1,0,0.3,0,0.4-0.1c0.2-0.2,0.2-0.5,0-0.7L22.5-8l1.9-1.9C24.5-10.1,24.5-10.4,24.3-10.6z"/>
</svg>
