<svg xmlns="http://www.w3.org/2000/svg" width="20" height="21" viewBox="0 0 20 21">
    <path fill="#FFF" fill-rule="evenodd" d="M2.285 10.875L4.59 13.16c.117.13.176.28.176.45 0 .169-.059.318-.176.449a.89.89 0 0 1-.215.127.605.605 0 0 1-.234.048.605.605 0 0 1-.235-.048.89.89 0 0 1-.215-.127L0 10.269 3.691 6.48a.617.617 0 0 1 .898 0 .596.596 0 0 1 .177.44.596.596 0 0 1-.176.44L2.324 9.624h10.781c.183 0 .332.059.45.176a.608.608 0 0 1 .175.449.617.617 0 0 1-.625.625H2.285zM18.75.25c.339 0 .632.12.879.361S20 1.148 20 1.5V19c0 .352-.124.648-.371.889-.247.24-.54.361-.879.361H8.125c-.352 0-.648-.12-.889-.361A1.208 1.208 0 0 1 6.875 19v-5.645h1.25v4.883c0 .209.075.388.225.537.15.15.328.225.537.225h9.101a.701.701 0 0 0 .528-.225.75.75 0 0 0 .214-.537l-.02-15.976a.75.75 0 0 0-.214-.537.701.701 0 0 0-.527-.225H8.887a.733.733 0 0 0-.537.225.733.733 0 0 0-.225.537v4.863h-1.25V1.5c0-.352.12-.648.361-.889.241-.24.537-.361.889-.361H18.75z"/>
</svg>
